<svg xmlns="http://www.w3.org/2000/svg" viewBox="0 0 500 500">
  <defs>
    <clipPath id="c">
      <rect width="500" height="500" rx="90"/>
    </clipPath>
  </defs>
  <rect width="500" height="500" rx="90" fill="#ffffff"/>
  <g clip-path="url(#c)" transform="translate(23.1591, 128.1338) scale(0.921275)">
    <path transform="matrix(1,0,0,-1,287.4068,151.7709)" d="M0 0-60.729-86.457H-138.552L-249.432 73.782-269.122 102.236H-232.29L-212.6 73.782-128.561-47.667-78.612-47.005-17.464 38.288 65.416-3.247 135.572 96.135 120.236 123.931H186.764L73.428-36.619 0 0 73.428-36.619" fill="#231f20"/>
    <path transform="matrix(1,0,0,-1,391.5219,26.328904)" d="M0 0 15.672-29.307-42.738-111.725-80.351-92.967-30.687-23.205H-192.221L-143.322-93.872-189.61-160.733-222.003-161.616-317.778-23.205H-284.775L-213.518-126.181-197.168-126.435-174.476-94.29-239.722 0Z" fill="#231f20"/>
  </g>
</svg>
